# xmcd
#
# Track frame offsets: 
#        150
#        14887
#        19843
#        29274
#        38231
#        43530
#        53798
#        59075
#        67934
#        78645
#        86828
#        99157
#        108589
#        123084
#        131031
#        138566
#        146222
#        152241
#        163893
#        175402
#        182179
#        195015
#        209887
#        220091
#        229745
#        251710
#        260417
#        271890
#        283967
#        297212
#        310397
#        318079
#        335300
#
# Disc length: 4732 seconds
#
# Revision: 2
# Processed by: cddbd v1.4PL0 Copyright (c) Steve Scherf et al.
# Submitted via: ExactAudioCopy v0.90b4
#
DISCID=fd127a21
DTITLE=Булат Окуджава - Большая Российская Музыкальная Энциклопедия
DYEAR=2000
DGENRE=
TTITLE0=Молитва
TTITLE1=Песенка о бумажном солдатике
TTITLE2=Песенка о Леньке Королеве
TTITLE3=Песенка о моей жизни
TTITLE4=Песенка про черного кота
TTITLE5=Песенка о пехоте
TTITLE6=Песенка о голубом шарике
TTITLE7=Песенка о солдатских сапогах
TTITLE8=Песенка о московском муравье
TTITLE9=Живописцы
TTITLE10=Песенка о полночном троллейбусе
TTITLE11=Песенка о ночной Москве
TTITLE12=А все-таки жаль...
TTITLE13=Из поздравления театру "Современник"
TTITLE14=Гори, огонь, гори
TTITLE15="За что ж вы Ваньку-то Морозова..."
TTITLE16=Песенка о дураках
TTITLE17=Песенка о старом, больном, усталом Короле
TTITLE18=Чудесный вальс
TTITLE19=Песенка веселого солдата
TTITLE20=Песня о Моцарте
TTITLE21=Союз друзей
TTITLE22=Старый пиджак
TTITLE23=Мастер Гриша
TTITLE24=Прощание с новогодней елкой
TTITLE25=Батальное полотно
TTITLE26=В день рожденья подарок
TTITLE27=Музыкант
TTITLE28=Песенка о юнкерах
TTITLE29=Я пишу исторический роман
TTITLE30="Давайте восклицать..."
TTITLE31=Молодой гусар
TTITLE32=Кабинеты моих друзей
EXTD=Solyd Records
EXTT0=
EXTT1=
EXTT2=
EXTT3=
EXTT4=
EXTT5=
EXTT6=
EXTT7=
EXTT8=
EXTT9=
EXTT10=
EXTT11=
EXTT12=
EXTT13=
EXTT14=
EXTT15=
EXTT16=
EXTT17=
EXTT18=
EXTT19=
EXTT20=
EXTT21=
EXTT22=
EXTT23=
EXTT24=
EXTT25=
EXTT26=
EXTT27=
EXTT28=
EXTT29=
EXTT30=
EXTT31=
EXTT32=
PLAYORDER=
